<?xml version="1.0" encoding="utf-8"?>
<!-- Generator: Adobe Illustrator 15.0.0, SVG Export Plug-In  -->
<!DOCTYPE svg PUBLIC "-//W3C//DTD SVG 1.1//EN" "http://www.w3.org/Graphics/SVG/1.1/DTD/svg11.dtd" [
	<!ENTITY ns_flows "http://ns.adobe.com/Flows/1.0/">
]>
<svg version="1.1"
	 xmlns="http://www.w3.org/2000/svg" xmlns:xlink="http://www.w3.org/1999/xlink" xmlns:a="http://ns.adobe.com/AdobeSVGViewerExtensions/3.0/"
	 x="0px" y="0px" width="283px" height="209px" viewBox="0 0 283 209" enable-background="new 0 0 283 209" xml:space="preserve">
<defs>
</defs>
<polyline fill="#FFFFFF" stroke="#4E6BB0" stroke-width="2" stroke-miterlimit="10" points="123,149 123,163 173,163 173,149 "/>
<path fill="#FFFFFF" stroke="#4E6BB0" stroke-width="2" stroke-miterlimit="10" d="M244,137c0,6.627-5.373,12-12,12H66
	c-6.627,0-12-5.373-12-12V41c0-6.627,5.373-12,12-12h166c6.627,0,12,5.373,12,12V137z"/>
<path fill="#FFFFFF" stroke="#4E6BB0" stroke-width="2" stroke-miterlimit="10" d="M181,165.5c0,1.381-1.119,2.5-2.5,2.5h-62
	c-1.381,0-2.5-1.119-2.5-2.5l0,0c0-1.381,1.119-2.5,2.5-2.5h62C179.881,163,181,164.119,181,165.5L181,165.5z"/>
<circle fill="#BFC1C1" stroke="#BFC1C1" stroke-width="2" stroke-miterlimit="10" cx="149" cy="139" r="4"/>
<rect x="60" y="38" fill="#FFFFFF" stroke="#4E6BB0" stroke-width="2" stroke-miterlimit="10" width="178" height="89"/>
<path fill="#FFFFFF" stroke="#4E6BB0" stroke-width="2" stroke-miterlimit="10" d="M81,160.45c0,4.722-1.541,8.55-3.442,8.55H29.442
	c-1.901,0-3.442-3.828-3.442-8.55v-68.9c0-4.722,1.541-8.55,3.442-8.55h48.115C79.459,83,81,86.828,81,91.55V160.45z"/>
<rect x="30" y="91" fill="none" stroke="#4E6BB0" stroke-width="2" stroke-miterlimit="10" width="46" height="68"/>
<ellipse fill="#BFC1C1" stroke="#BFC1C1" stroke-width="1.2077" stroke-miterlimit="10" cx="52.5" cy="164.334" rx="2.5" ry="2.333"/>
<path fill="#BFC1C1" stroke="#BFC1C1" stroke-miterlimit="10" d="M64.5,87.5c0,0.552-0.448,1-1,1h-21c-0.552,0-1-0.448-1-1l0,0
	c0-0.552,0.448-1,1-1h21C64.052,86.5,64.5,86.948,64.5,87.5L64.5,87.5z"/>
<path fill="#FFFFFF" stroke="#4E6BB0" stroke-width="2" stroke-miterlimit="10" d="M259,165.463c0,3.058-0.88,5.537-1.966,5.537
	h-27.068c-1.086,0-1.966-2.479-1.966-5.537v-44.926c0-3.058,0.88-5.537,1.966-5.537h27.068c1.086,0,1.966,2.479,1.966,5.537V165.463
	z"/>
<rect x="232" y="123" fill="none" stroke="#4E6BB0" stroke-width="2" stroke-miterlimit="10" width="24" height="42"/>
<path fill="#BFC1C1" stroke="#BFC1C1" stroke-miterlimit="10" d="M249.5,119.271c0,0.127-0.174,0.229-0.389,0.229h-10.223
	c-0.215,0-0.389-0.103-0.389-0.229v-0.541c0-0.127,0.174-0.229,0.389-0.229h10.223c0.215,0,0.389,0.103,0.389,0.229V119.271z"/>
<polyline fill="none" stroke="#5A5B5B" stroke-width="2" stroke-miterlimit="10" points="41.5,144 54,126.667 60,135.334 
	72,121.334 "/>
<polyline fill="none" stroke="#5A5B5B" stroke-width="2" stroke-miterlimit="10" points="87.333,107.5 118.667,67.334 
	131.333,81.334 181,74.667 204.667,81.334 225.333,110.334 "/>
<polyline fill="none" stroke="#5A5B5B" stroke-width="2" stroke-miterlimit="10" points="238,127.334 244,146 249.5,136.667 "/>
<ellipse fill="#5A5B5B" stroke="#5A5B5B" stroke-width="2" stroke-miterlimit="10" cx="42.5" cy="143.334" rx="2.5" ry="2.333"/>
<ellipse fill="#5A5B5B" stroke="#5A5B5B" stroke-width="2" stroke-miterlimit="10" cx="53.5" cy="126.334" rx="2.5" ry="2.333"/>
<ellipse fill="#5A5B5B" stroke="#5A5B5B" stroke-width="2" stroke-miterlimit="10" cx="60.5" cy="135.334" rx="2.5" ry="2.333"/>
<ellipse fill="#5A5B5B" stroke="#5A5B5B" stroke-width="2" stroke-miterlimit="10" cx="118.5" cy="67.334" rx="2.5" ry="2.333"/>
<ellipse fill="#5A5B5B" stroke="#5A5B5B" stroke-width="2" stroke-miterlimit="10" cx="131.5" cy="81.334" rx="2.5" ry="2.333"/>
<ellipse fill="#5A5B5B" stroke="#5A5B5B" stroke-width="2" stroke-miterlimit="10" cx="181.5" cy="75.334" rx="2.5" ry="2.333"/>
<ellipse fill="#5A5B5B" stroke="#5A5B5B" stroke-width="2" stroke-miterlimit="10" cx="204.5" cy="81.334" rx="2.5" ry="2.333"/>
<ellipse fill="#5A5B5B" stroke="#5A5B5B" stroke-width="2" stroke-miterlimit="10" cx="244.5" cy="145.334" rx="2.5" ry="2.333"/>
<ellipse fill="#5A5B5B" stroke="#5A5B5B" stroke-width="2" stroke-miterlimit="10" cx="250.5" cy="134.334" rx="2.5" ry="2.333"/>
<rect id="_x3C_Sector_x3E__3_" fill="none" width="283" height="209"/>
</svg>
