<?xml version="1.0" encoding="utf-8"?>
<!-- Generator: Adobe Illustrator 15.0.0, SVG Export Plug-In  -->
<!DOCTYPE svg PUBLIC "-//W3C//DTD SVG 1.1//EN" "http://www.w3.org/Graphics/SVG/1.1/DTD/svg11.dtd" [
	<!ENTITY ns_flows "http://ns.adobe.com/Flows/1.0/">
]>
<svg version="1.1"
	 xmlns="http://www.w3.org/2000/svg" xmlns:xlink="http://www.w3.org/1999/xlink" xmlns:a="http://ns.adobe.com/AdobeSVGViewerExtensions/3.0/"
	 x="0px" y="0px" width="359px" height="209px" viewBox="0 0 359 209" enable-background="new 0 0 359 209" xml:space="preserve">
<defs>
</defs>
<rect id="_x3C_Sector_x3E__3_" fill="none" width="359" height="209"/>
<path fill="#FFFFFF" stroke="#4E6BB0" stroke-width="2" stroke-miterlimit="10" d="M224,183.5c0,1.381-1.119,2.5-2.5,2.5h-62
	c-1.381,0-2.5-1.119-2.5-2.5l0,0c0-1.381,1.119-2.5,2.5-2.5h62C222.881,181,224,182.119,224,183.5L224,183.5z"/>
<path fill="none" stroke="#BFC1C1" stroke-width="2" stroke-miterlimit="10" d="M157.151,36c3.107,0,6.215,0,9.322,0"/>
<polyline fill="none" stroke="#BFC1C1" stroke-width="2" stroke-miterlimit="10" points="179,36 192,36 192,47 "/>
<path fill="none" stroke="#BFC1C1" stroke-width="2" stroke-miterlimit="10" d="M134.988,36c3.694,0,7.389,0,11.083,0"/>
<path fill="none" stroke="#BFC1C1" stroke-width="2" stroke-miterlimit="10" d="M116,36c2.609,0,5.217,0,7.826,0"/>
<path fill="#FFFFFF" stroke="#4E6BB0" stroke-width="2" stroke-miterlimit="10" d="M116,177.226c0,5.95-5.373,10.774-12,10.774H32
	c-6.627,0-12-4.824-12-10.774V31.774C20,25.824,25.373,21,32,21h72c6.627,0,12,4.824,12,10.774V177.226z"/>
<circle fill="#5A5B5B" stroke="#5A5B5B" stroke-width="2" stroke-miterlimit="10" cx="37" cy="38" r="4"/>
<circle fill="#5A5B5B" stroke="#5A5B5B" stroke-width="2" stroke-miterlimit="10" cx="37" cy="70" r="4"/>
<circle fill="#5A5B5B" stroke="#5A5B5B" stroke-width="2" stroke-miterlimit="10" cx="37" cy="104" r="4"/>
<circle fill="#5A5B5B" stroke="#5A5B5B" stroke-width="2" stroke-miterlimit="10" cx="37" cy="139" r="4"/>
<circle fill="#5A5B5B" stroke="#5A5B5B" stroke-width="2" stroke-miterlimit="10" cx="37" cy="171" r="4"/>
<path fill="#BFC1C1" stroke="#BFC1C1" stroke-miterlimit="10" d="M64.5,37.5c0,1.104-0.481,2-1.076,2H51.576
	c-0.594,0-1.076-0.896-1.076-2l0,0c0-1.104,0.481-2,1.076-2h11.849C64.019,35.5,64.5,36.396,64.5,37.5L64.5,37.5z"/>
<path fill="#BFC1C1" stroke="#BFC1C1" stroke-miterlimit="10" d="M103.5,37.5c0,1.104-1.117,2-2.494,2H72.994
	c-1.377,0-2.494-0.896-2.494-2l0,0c0-1.104,1.117-2,2.494-2h28.012C102.383,35.5,103.5,36.396,103.5,37.5L103.5,37.5z"/>
<path fill="#BFC1C1" stroke="#BFC1C1" stroke-miterlimit="10" d="M64.5,69.5c0,1.104-0.481,2-1.076,2H51.576
	c-0.594,0-1.076-0.896-1.076-2l0,0c0-1.104,0.481-2,1.076-2h11.849C64.019,67.5,64.5,68.396,64.5,69.5L64.5,69.5z"/>
<path fill="#BFC1C1" stroke="#BFC1C1" stroke-miterlimit="10" d="M103.5,69.5c0,1.104-1.117,2-2.494,2H72.994
	c-1.377,0-2.494-0.896-2.494-2l0,0c0-1.104,1.117-2,2.494-2h28.012C102.383,67.5,103.5,68.396,103.5,69.5L103.5,69.5z"/>
<path fill="#BFC1C1" stroke="#BFC1C1" stroke-miterlimit="10" d="M63.5,103.5c0,1.104-0.481,2-1.076,2H50.576
	c-0.594,0-1.076-0.896-1.076-2l0,0c0-1.104,0.481-2,1.076-2h11.849C63.019,101.5,63.5,102.396,63.5,103.5L63.5,103.5z"/>
<path fill="#BFC1C1" stroke="#BFC1C1" stroke-miterlimit="10" d="M102.5,103.5c0,1.104-1.117,2-2.494,2H71.994
	c-1.377,0-2.494-0.896-2.494-2l0,0c0-1.104,1.117-2,2.494-2h28.012C101.383,101.5,102.5,102.396,102.5,103.5L102.5,103.5z"/>
<path fill="#BFC1C1" stroke="#BFC1C1" stroke-miterlimit="10" d="M63.5,139.5c0,1.104-0.481,2-1.076,2H50.576
	c-0.594,0-1.076-0.896-1.076-2l0,0c0-1.104,0.481-2,1.076-2h11.849C63.019,137.5,63.5,138.396,63.5,139.5L63.5,139.5z"/>
<path fill="#BFC1C1" stroke="#BFC1C1" stroke-miterlimit="10" d="M102.5,139.5c0,1.104-1.117,2-2.494,2H71.994
	c-1.377,0-2.494-0.896-2.494-2l0,0c0-1.104,1.117-2,2.494-2h28.012C101.383,137.5,102.5,138.396,102.5,139.5L102.5,139.5z"/>
<path fill="#BFC1C1" stroke="#BFC1C1" stroke-miterlimit="10" d="M63.5,171.5c0,1.104-0.481,2-1.076,2H50.576
	c-0.594,0-1.076-0.896-1.076-2l0,0c0-1.104,0.481-2,1.076-2h11.849C63.019,169.5,63.5,170.396,63.5,171.5L63.5,171.5z"/>
<path fill="#BFC1C1" stroke="#BFC1C1" stroke-miterlimit="10" d="M102.5,171.5c0,1.104-1.117,2-2.494,2H71.994
	c-1.377,0-2.494-0.896-2.494-2l0,0c0-1.104,1.117-2,2.494-2h28.012C101.383,169.5,102.5,170.396,102.5,171.5L102.5,171.5z"/>
<line fill="#FFFFFF" stroke="#4E6BB0" stroke-width="2" stroke-miterlimit="10" x1="20" y1="55" x2="116" y2="55"/>
<line fill="#FFFFFF" stroke="#4E6BB0" stroke-width="2" stroke-miterlimit="10" x1="20" y1="87" x2="116" y2="87"/>
<line fill="#FFFFFF" stroke="#4E6BB0" stroke-width="2" stroke-miterlimit="10" x1="20" y1="120" x2="116" y2="120"/>
<line fill="#FFFFFF" stroke="#4E6BB0" stroke-width="2" stroke-miterlimit="10" x1="20" y1="156" x2="116" y2="156"/>
<polyline fill="#FFFFFF" stroke="#4E6BB0" stroke-width="2" stroke-miterlimit="10" points="166,167 166,181 216,181 216,167 "/>
<path fill="#FFFFFF" stroke="#4E6BB0" stroke-width="2" stroke-miterlimit="10" d="M287,155c0,6.627-5.373,12-12,12H109
	c-6.627,0-12-5.373-12-12V59c0-6.627,5.373-12,12-12h166c6.627,0,12,5.373,12,12V155z"/>
<circle fill="#BFC1C1" stroke="#BFC1C1" stroke-width="2" stroke-miterlimit="10" cx="190" cy="157" r="4"/>
<rect x="103" y="56" fill="none" stroke="#4E6BB0" stroke-width="2" stroke-miterlimit="10" width="178" height="89"/>
<line fill="#F8E68E" stroke="#F1CE24" stroke-width="2" stroke-miterlimit="10" x1="278" y1="147" x2="278" y2="190"/>
<line fill="#FFFFFF" stroke="#F1CE24" stroke-width="2" stroke-miterlimit="10" x1="300" y1="147" x2="300" y2="190"/>
<ellipse fill="#FFFFFF" stroke="#F1CE24" stroke-width="1.7795" stroke-miterlimit="10" cx="289" cy="189.25" rx="11" ry="4.75"/>
<ellipse fill="#FFFFFF" stroke="#F1CE24" stroke-width="1.7795" stroke-miterlimit="10" cx="289" cy="185.25" rx="11" ry="4.75"/>
<ellipse fill="#FFFFFF" stroke="#F1CE24" stroke-width="1.7795" stroke-miterlimit="10" cx="289" cy="181.25" rx="11" ry="4.75"/>
<ellipse fill="#FFFFFF" stroke="#F1CE24" stroke-width="1.7795" stroke-miterlimit="10" cx="289" cy="176.25" rx="11" ry="4.75"/>
<ellipse fill="#FFFFFF" stroke="#F1CE24" stroke-width="1.7795" stroke-miterlimit="10" cx="289" cy="171.25" rx="11" ry="4.75"/>
<ellipse fill="#FFFFFF" stroke="#F1CE24" stroke-width="1.7795" stroke-miterlimit="10" cx="289" cy="166.25" rx="11" ry="4.75"/>
<ellipse fill="#FFFFFF" stroke="#F1CE24" stroke-width="1.7795" stroke-miterlimit="10" cx="289" cy="161.25" rx="11" ry="4.75"/>
<ellipse fill="#FFFFFF" stroke="#F1CE24" stroke-width="1.7795" stroke-miterlimit="10" cx="289" cy="156.25" rx="11" ry="4.75"/>
<ellipse fill="#FFFFFF" stroke="#F1CE24" stroke-width="1.7795" stroke-miterlimit="10" cx="289" cy="151.25" rx="11" ry="4.75"/>
<ellipse fill="#FFFFFF" stroke="#F1CE24" stroke-width="1.7795" stroke-miterlimit="10" cx="289" cy="147.25" rx="11" ry="4.75"/>
<line fill="#F8E68E" stroke="#F1CE24" stroke-width="2" stroke-miterlimit="10" x1="281" y1="163" x2="281" y2="194"/>
<ellipse fill="#FFFFFF" stroke="#F1CE24" stroke-width="1.7795" stroke-miterlimit="10" cx="270" cy="192.25" rx="11" ry="4.75"/>
<ellipse fill="#FFFFFF" stroke="#F1CE24" stroke-width="1.7795" stroke-miterlimit="10" cx="270" cy="187.25" rx="11" ry="4.75"/>
<ellipse fill="#FFFFFF" stroke="#F1CE24" stroke-width="1.7795" stroke-miterlimit="10" cx="270" cy="182.25" rx="11" ry="4.75"/>
<ellipse fill="#FFFFFF" stroke="#F1CE24" stroke-width="1.7795" stroke-miterlimit="10" cx="270" cy="177.25" rx="11" ry="4.75"/>
<ellipse fill="#FFFFFF" stroke="#F1CE24" stroke-width="1.7795" stroke-miterlimit="10" cx="270" cy="172.25" rx="11" ry="4.75"/>
<ellipse fill="#FFFFFF" stroke="#F1CE24" stroke-width="1.7795" stroke-miterlimit="10" cx="270" cy="167.25" rx="11" ry="4.75"/>
<ellipse fill="#FFFFFF" stroke="#F1CE24" stroke-width="1.7795" stroke-miterlimit="10" cx="270" cy="163.25" rx="11" ry="4.75"/>
<line fill="#F8E68E" stroke="#F1CE24" stroke-width="2" stroke-miterlimit="10" x1="259" y1="163" x2="259" y2="192"/>
<line fill="#FFFFFF" stroke="#F1CE24" stroke-width="2" stroke-miterlimit="10" x1="320" y1="159" x2="320" y2="193"/>
<ellipse fill="#FFFFFF" stroke="#F1CE24" stroke-width="1.7795" stroke-miterlimit="10" cx="309" cy="192.25" rx="11" ry="4.75"/>
<ellipse fill="#FFFFFF" stroke="#F1CE24" stroke-width="1.7795" stroke-miterlimit="10" cx="309" cy="188.25" rx="11" ry="4.75"/>
<ellipse fill="#FFFFFF" stroke="#F1CE24" stroke-width="1.7795" stroke-miterlimit="10" cx="309" cy="184.25" rx="11" ry="4.75"/>
<ellipse fill="#FFFFFF" stroke="#F1CE24" stroke-width="1.7795" stroke-miterlimit="10" cx="309" cy="179.25" rx="11" ry="4.75"/>
<ellipse fill="#FFFFFF" stroke="#F1CE24" stroke-width="1.7795" stroke-miterlimit="10" cx="309" cy="174.25" rx="11" ry="4.75"/>
<ellipse fill="#FFFFFF" stroke="#F1CE24" stroke-width="1.7795" stroke-miterlimit="10" cx="309" cy="169.25" rx="11" ry="4.75"/>
<ellipse fill="#FFFFFF" stroke="#F1CE24" stroke-width="1.7795" stroke-miterlimit="10" cx="309" cy="164.25" rx="11" ry="4.75"/>
<ellipse fill="#FFFFFF" stroke="#F1CE24" stroke-width="1.7795" stroke-miterlimit="10" cx="309" cy="159.25" rx="11" ry="4.75"/>
<circle fill="#FFFFFF" stroke="#F1CE24" stroke-width="2" stroke-miterlimit="10" cx="325.333" cy="187.334" r="16.333"/>
<ellipse fill="#FFFFFF" stroke="#F1CE24" stroke-miterlimit="10" cx="325.5" cy="187.168" rx="13.5" ry="13.168"/>
<text transform="matrix(1 0 0 1 321 192)" fill="#FFFFFF" stroke="#F1CE24" stroke-width="1.7795" stroke-miterlimit="10" font-family="'MyriadPro-Regular'" font-size="16">$</text>
</svg>
