<?xml version="1.0" encoding="utf-8"?>
<!-- Generator: Adobe Illustrator 15.0.0, SVG Export Plug-In  -->
<!DOCTYPE svg PUBLIC "-//W3C//DTD SVG 1.1//EN" "http://www.w3.org/Graphics/SVG/1.1/DTD/svg11.dtd" [
	<!ENTITY ns_flows "http://ns.adobe.com/Flows/1.0/">
]>
<svg version="1.1"
	 xmlns="http://www.w3.org/2000/svg" xmlns:xlink="http://www.w3.org/1999/xlink" xmlns:a="http://ns.adobe.com/AdobeSVGViewerExtensions/3.0/"
	 x="0px" y="0px" width="284px" height="209px" viewBox="0 0 284 209" enable-background="new 0 0 284 209" xml:space="preserve">
<defs>
</defs>
<rect x="101" y="146" fill="#FFFFFF" stroke="#F1CE24" stroke-width="2" stroke-miterlimit="10" width="13" height="11"/>
<rect x="119" y="136" fill="#FFFFFF" stroke="#F1CE24" stroke-width="2" stroke-miterlimit="10" width="13" height="22"/>
<rect x="140" y="110" fill="#FFFFFF" stroke="#F1CE24" stroke-width="2" stroke-miterlimit="10" width="13" height="49"/>
<rect x="163" y="87" fill="#FFFFFF" stroke="#F1CE24" stroke-width="2" stroke-miterlimit="10" width="13" height="73"/>
<g>
	<g>
		<path fill="#FFFFFF" d="M132.846,154.158c-0.494,0.182-0.875,0.426-1.275,0.767c-0.64,0.546-1.318,0.964-2.034,1.411
			c-1.261,0.787-2.304,1.682-3.179,2.889c-0.22,0.304,0.723,0.233,0.783,0.224c0.398-0.068,0.879-0.206,1.127-0.548
			c0.756-1.043,1.682-1.776,2.759-2.467c0.493-0.315,0.998-0.614,1.5-0.916c0.356-0.214,0.618-0.722,1.003-0.863
			c0.108-0.04,0.867-0.366,0.566-0.585C133.783,153.842,133.158,154.043,132.846,154.158L132.846,154.158z"/>
	</g>
</g>
<g>
	<g>
		<path fill="#FFFFFF" d="M119.721,142.619c-0.054,0.215-0.104,0.209-0.275,0.306c0.09-0.051-0.209,0.095-0.247,0.112
			c-0.127,0.058-0.254,0.116-0.38,0.178c-0.592,0.291-1.157,0.658-1.379,1.311c-0.145,0.427,0.617,0.45,0.837,0.423
			c0.398-0.05,0.953-0.238,1.097-0.661c0.07-0.208,0.176-0.236,0.339-0.327c-0.074,0.041,0.213-0.096,0.254-0.114
			c0.126-0.057,0.251-0.115,0.375-0.176c0.562-0.278,1.149-0.642,1.313-1.289C121.837,141.659,119.89,141.954,119.721,142.619
			L119.721,142.619z"/>
	</g>
</g>
<path fill="#FFFFFF" stroke="#4E6BB0" stroke-width="1.3663" stroke-miterlimit="10" d="M166.504,199.448
	c-4.277,3.71-9.379,4.832-11.395,2.507l-29.016-33.46c-2.016-2.324-0.182-7.215,4.096-10.924l0.377-0.328
	c4.277-3.708,9.377-4.831,11.393-2.506l29.017,33.461c2.016,2.323,0.183,7.213-4.095,10.922L166.504,199.448z"/>
<ellipse fill="#FFFFFF" stroke="#4E6BB0" stroke-width="2" stroke-miterlimit="10" cx="88.068" cy="105.206" rx="49.197" ry="48.165"/>
<ellipse fill="#FFFFFF" stroke="#4E6BB0" stroke-width="2" stroke-miterlimit="10" cx="88.468" cy="105.798" rx="42.896" ry="40.431"/>
<path fill="none" stroke="#5A5B5B" stroke-width="6" stroke-miterlimit="10" d="M162.714,47.109
	c-8.482,2.63-16.966,5.261-25.448,7.891"/>
<path fill="none" stroke="#5A5B5B" stroke-width="6" stroke-miterlimit="10" d="M49.07,105.5C60,106,71,108,82,110c2,0,5,1,7-1
	c7-10,12-20,19-30c8,4,15,9,23,12c10-15,21-29,31.857-43.72"/>
<path fill="#FFFFFF" stroke="#5A5B5B" stroke-width="6" stroke-miterlimit="10" d="M163,47.301c0,8.233,0,16.466,0,24.699"/>
<line fill="none" stroke="#BFC1C1" stroke-width="2" stroke-miterlimit="10" x1="146" y1="184.25" x2="155" y2="176"/>
<line fill="none" stroke="#BFC1C1" stroke-width="2" stroke-miterlimit="10" x1="151" y1="189.25" x2="160" y2="181"/>
<line fill="none" stroke="#BFC1C1" stroke-width="2" stroke-miterlimit="10" x1="155" y1="194.25" x2="164" y2="186"/>
<g>
	<g>
		<path fill="#FFFFFF" d="M123.354,156.85c0.569,0.552,0.719,1.453,1.024,2.159c0.298,0.688,2.196,0.095,1.932-0.518
			c-0.343-0.791-0.523-1.783-1.163-2.403C124.648,155.605,122.823,156.336,123.354,156.85L123.354,156.85z"/>
	</g>
</g>
<g>
	<g>
		<path fill="#FFFFFF" d="M119.346,149.487c0.1,0.169,0.188,0.323,0.333,0.458c0.268,0.251,1.18-0.123,0.893-0.391
			c-0.144-0.135-0.232-0.29-0.333-0.458C120.061,148.795,119.123,149.113,119.346,149.487L119.346,149.487z"/>
	</g>
</g>
<g>
	<g>
		<path fill="#FFFFFF" d="M117.16,148.141c0.386,0.345,0.575,0.823,0.836,1.26c0.325,0.545,0.807,0.935,1.289,1.334
			c0.479,0.395,2.249-0.352,1.805-0.719c-0.457-0.377-0.931-0.745-1.238-1.261c-0.276-0.462-0.478-0.967-0.887-1.333
			C118.506,147.012,116.717,147.743,117.16,148.141L117.16,148.141z"/>
	</g>
</g>
<g>
	<g>
		<path fill="#FFFFFF" d="M129.813,151.817c0.826,0.435,1.776,0.72,2.438,1.406c0.392,0.406,2.2-0.292,1.811-0.697
			c-0.667-0.69-1.608-0.97-2.438-1.406c-0.382-0.2-0.875-0.089-1.258,0.059C130.281,151.212,129.456,151.629,129.813,151.817
			L129.813,151.817z"/>
	</g>
</g>
<g>
	<g>
		<path fill="#FFFFFF" d="M125.367,158.509c0.021,0.169,0.062,0.331,0.084,0.5c0.057,0.432,2.003,0.026,1.932-0.518
			c-0.021-0.169-0.062-0.331-0.084-0.5C127.242,157.56,125.296,157.965,125.367,158.509L125.367,158.509z"/>
	</g>
</g>
<g>
	<g>
		<path fill="#FFFFFF" d="M126.966,158.074c-0.156-0.604-0.178-1.229-0.333-1.833c-0.217-0.844-2.149-0.33-1.932,0.518
			c0.155,0.604,0.177,1.229,0.333,1.833C125.252,159.436,127.186,158.921,126.966,158.074L126.966,158.074z"/>
	</g>
</g>
<g>
	<g>
		<path fill="#FFFFFF" d="M127.768,158.631c0.762-0.687,1.446-1.447,2.127-2.213c0.313-0.354-0.266-0.515-0.51-0.516
			c-0.459,0-0.969,0.165-1.279,0.514c-0.601,0.676-1.2,1.347-1.873,1.953c-0.29,0.262-0.237,0.559,0.169,0.628
			C126.84,159.072,127.432,158.934,127.768,158.631L127.768,158.631z"/>
	</g>
</g>
<g>
	<g>
		<path fill="#FFFFFF" d="M126.883,158.324c-0.1-0.676-0.318-1.324-0.417-2c-0.134-0.917-2.069-0.43-1.932,0.518
			c0.099,0.676,0.317,1.324,0.417,2C125.086,159.759,127.022,159.271,126.883,158.324L126.883,158.324z"/>
	</g>
</g>
<path fill="none" stroke="#4E6BB0" stroke-width="1.6677" stroke-miterlimit="10" d="M114.441,146.25c0,0,11.52,7.75,10.789,21.25"
	/>
<path fill="none" stroke="#4E6BB0" stroke-width="1.5019" stroke-miterlimit="10" d="M141.162,154.089
	c0,0-16.791-2.09-19.723-14.271"/>
<g>
	<g>
		<path fill="#FFFFFF" d="M118.261,147.341c1.003-0.098,1.438,0.57,1.941,1.349c0.514,0.792,2.341,0.014,1.762-0.879
			c-0.374-0.577-0.783-1.158-1.366-1.542c-0.647-0.427-1.436-0.517-2.192-0.443c-0.445,0.043-1.007,0.31-1.055,0.817
			C117.305,147.13,117.847,147.381,118.261,147.341L118.261,147.341z"/>
	</g>
</g>
<g>
	<g>
		<path fill="#FFFFFF" d="M117.656,147.184c1.073,0.124,1.719,1.457,2.363,2.191c0.435,0.495,2.281-0.196,1.795-0.75
			c-0.851-0.97-1.552-2.311-2.971-2.475c-0.472-0.055-0.998,0.046-1.366,0.366C117.192,146.765,117.24,147.136,117.656,147.184
			L117.656,147.184z"/>
	</g>
</g>
<g>
	<g>
		<path fill="#FFFFFF" d="M120.881,145.51c0.201-0.097,0.398-0.175,0.609-0.246c0.116-0.039,0.699-0.227,0.643-0.439
			c-0.058-0.216-0.654-0.079-0.775-0.06c-0.762,0.122-1.441,0.441-2.177,0.644c0.313,0.056,0.626,0.11,0.938,0.166
			c0.12-0.129,0.209-0.239,0.363-0.324c-0.534,0.031-1.067,0.062-1.602,0.093c-0.266,0.205-0.126,0.195,0.418-0.03
			c0.023,0.088,0.047,0.175,0.07,0.262c-0.472,0.021-0.556,0.058-0.251,0.113c-0.051-0.059-0.101-0.116-0.151-0.174
			c-0.015,0.094-0.041,0.184-0.079,0.27c-0.243,0.377,0.061,0.332,0.911-0.138c0.051,0.059,0.101,0.116,0.151,0.174
			c0.033-0.091,0.065-0.198,0.137-0.27c-0.774,0.767-1.623,0.124-1.125,0.394c0.061,0.033,0.101,0.074,0.137,0.131
			c0.253,0.389-0.918,0.108,0.811-0.132c0.228-0.031,0.139,0.046,0.092-0.05c-0.035-0.072,0.021-0.149,0.053-0.209
			c0.188-0.339,0.577-0.248-0.148-0.162c-0.174-0.059-0.348-0.116-0.522-0.174c-0.043,0.091-0.103,0.171-0.177,0.24
			c-0.205,0.137-0.118,0.124,0.261-0.037c0.105,0.062,0.211,0.124,0.316,0.186c0.269-0.53,0.873-0.715,1.366-0.986
			c0.32-0.177,0.257-0.366-0.099-0.366c-0.464,0-0.961,0.144-1.366,0.366c-0.65,0.358-1.445,0.646-1.802,1.348
			c-0.09,0.178,0.226,0.188,0.316,0.186c1.039-0.037,2.505-0.319,3.084-1.297c0.137-0.231-0.455-0.182-0.522-0.174
			c-0.913,0.107-2.054,0.428-2.606,1.232c-0.604,0.881,1.385,0.539,1.665,0.464c0.474-0.127,1.879-0.709,0.903-1.237
			c-0.413-0.224-1.016-0.09-1.432,0.029c-0.506,0.145-1.045,0.353-1.241,0.88c-0.042,0.112,0.044,0.162,0.151,0.174
			c0.898,0.093,2.426-0.154,2.666-1.202c0.028-0.127-0.032-0.143-0.151-0.174c-1.034-0.269-2.253,0.167-3.085,0.781
			c-0.147,0.108-0.106,0.238,0.07,0.262c0.986,0.129,2.171-0.194,2.918-0.864c0.23-0.206-0.045-0.273-0.235-0.273
			c-0.464,0-0.96,0.144-1.366,0.366c-0.258,0.141-0.439,0.298-0.637,0.51c-0.396,0.425,0.799,0.204,0.938,0.166
			c0.552-0.151,1.095-0.435,1.657-0.524c-0.044-0.166-0.089-0.333-0.133-0.499c-0.361,0.121-0.715,0.257-1.059,0.422
			c-0.124,0.06-0.686,0.373-0.251,0.447C119.959,145.843,120.5,145.692,120.881,145.51L120.881,145.51z"/>
	</g>
</g>
<g>
	<g>
		<path fill="#FFFFFF" d="M119.521,144.351c-0.345,0.178-0.904,0.555-1.181,0.601c-0.327,0.055-0.97,0.196-1.127,0.545
			c-0.153,0.338,0.671,0.236,0.781,0.219c0.978-0.163,1.784-0.619,2.651-1.065c0.166-0.086,0.662-0.422,0.228-0.536
			C120.452,144.001,119.896,144.158,119.521,144.351L119.521,144.351z"/>
	</g>
</g>
<g>
	<g>
		<path fill="#FFFFFF" d="M118.529,144.551c-0.357,0.174-0.725,0.326-1.083,0.5c-0.142,0.069-0.677,0.394-0.241,0.483
			c0.425,0.089,0.969-0.066,1.349-0.251c0.357-0.174,0.725-0.327,1.083-0.5c0.143-0.069,0.676-0.394,0.242-0.483
			C119.452,144.211,118.91,144.367,118.529,144.551L118.529,144.551z"/>
	</g>
</g>
<g>
	<g>
		<path fill="#FFFFFF" d="M120,143.275c-0.897,0.427-1.657,1.065-2.5,1.583c-0.211,0.13-0.629,0.489-0.195,0.655
			c0.406,0.156,1.004,0.014,1.361-0.206c0.842-0.517,1.604-1.157,2.5-1.583c0.236-0.112,0.609-0.497,0.195-0.656
			C120.925,142.901,120.396,143.088,120,143.275L120,143.275z"/>
	</g>
</g>
<g>
	<g>
		<path fill="#FFFFFF" d="M117.676,146.838c1.184,0.557,1.735,2.015,2.5,3c0.303,0.392,2.145-0.25,1.814-0.676
			c-0.763-0.983-1.313-2.441-2.5-3c-0.38-0.179-0.875-0.054-1.25,0.086C118.178,146.271,117.333,146.677,117.676,146.838
			L117.676,146.838z"/>
	</g>
</g>
<g>
	<g>
		<path fill="#FFFFFF" d="M117.851,147.787c0.449,0.503,1.052,0.83,1.5,1.333c0.426,0.477,2.269-0.214,1.799-0.74
			c-0.449-0.503-1.052-0.83-1.5-1.333C119.224,146.57,117.381,147.261,117.851,147.787L117.851,147.787z"/>
	</g>
</g>
<g>
	<g>
		<path fill="#FFFFFF" d="M119.174,149.002c0.449,0.367,0.861,0.779,1.193,1.257c0.343,0.493,2.104-0.271,1.932-0.518
			c-0.369-0.531-0.807-0.998-1.307-1.409c-0.287-0.234-0.96-0.011-1.248,0.096C119.623,148.473,118.893,148.771,119.174,149.002
			L119.174,149.002z"/>
	</g>
</g>
<g>
	<g>
		<path fill="#FFFFFF" d="M119.752,150.006c0.025,0.034,0.051,0.067,0.076,0.102c0.251,0.353,1.173-0.019,0.885-0.424
			c-0.064-0.091-0.133-0.154-0.215-0.23C120.188,149.166,119.344,149.627,119.752,150.006L119.752,150.006z"/>
	</g>
</g>
<g>
	<g>
		<path fill="#FFFFFF" d="M131.67,152.708c-0.527-0.085-1.056-0.164-1.583-0.25c-0.468-0.076-1.01,0.037-1.366,0.366
			c-0.292,0.27-0.222,0.644,0.192,0.718c1.271,0.226,2.49,0.583,3.794,0.516c0.367-0.019,1.001-0.26,1.094-0.673
			c0.101-0.45-0.578-0.456-0.842-0.442c-0.955,0.049-1.94-0.318-2.872-0.484c-0.392,0.361-0.782,0.723-1.174,1.084
			c0.527,0.085,1.056,0.164,1.583,0.25c0.468,0.076,1.01-0.037,1.366-0.366C132.15,153.159,132.088,152.776,131.67,152.708
			L131.67,152.708z"/>
	</g>
</g>
<g>
	<g>
		<path fill="#FFFFFF" d="M133.256,152.715c-0.814-0.168-1.704-0.391-2.359-0.93c-0.351-0.288-0.897-0.193-1.282-0.029
			c-0.195,0.083-0.861,0.504-0.511,0.793c0.845,0.694,1.92,1.019,2.975,1.236c0.456,0.094,1.021-0.052,1.366-0.366
			C133.746,153.146,133.66,152.799,133.256,152.715L133.256,152.715z"/>
	</g>
</g>
<g>
	<g>
		<path fill="#FFFFFF" d="M132.093,153.08c-0.919,0.3-1.834,0.561-2.633,1.127c-0.298,0.211-0.54,0.649-0.132,0.896
			c0.404,0.243,1.014,0.114,1.378-0.144c0.515-0.364,1.109-0.512,1.701-0.705c0.33-0.107,0.931-0.389,0.809-0.846
			C133.101,152.977,132.423,152.973,132.093,153.08L132.093,153.08z"/>
	</g>
</g>
<g>
	<g>
		<path fill="#FFFFFF" d="M132.11,153.707c-0.732,0.359-1.482,0.675-2.183,1.099c-0.318,0.192-0.25,0.407,0.112,0.421
			c0.462,0.017,0.973-0.128,1.366-0.366c0.58-0.351,1.21-0.603,1.817-0.901c0.15-0.073,0.672-0.401,0.237-0.5
			C133.036,153.363,132.49,153.521,132.11,153.707L132.11,153.707z"/>
	</g>
</g>
<g>
	<g>
		<path fill="#FFFFFF" d="M131.708,154.153c-0.289,0.279-0.575,0.502-0.96,0.623c-0.094,0.029-0.868,0.357-0.575,0.554
			c0.324,0.216,0.924-0.006,1.245-0.106c0.77-0.243,1.46-0.651,2.04-1.211c0.317-0.307-0.279-0.336-0.458-0.322
			C132.581,153.725,132.022,153.85,131.708,154.153L131.708,154.153z"/>
	</g>
</g>
<g>
	<g>
		<path fill="#FFFFFF" d="M131.863,154.049c-0.351,0.166-0.678,0.359-0.996,0.58c-0.247,0.17-0.497,0.39-0.781,0.495
			c-0.078,0.028-0.872,0.351-0.58,0.535c0.315,0.2,0.935-0.003,1.242-0.117c0.826-0.306,1.443-0.886,2.223-1.257
			c0.146-0.069,0.675-0.395,0.241-0.487C132.784,153.707,132.246,153.866,131.863,154.049L131.863,154.049z"/>
	</g>
</g>
<g>
	<g>
		<path fill="#FFFFFF" d="M130.523,154.5c-0.308,0.383-0.614,0.769-0.957,1.119c-0.266,0.271-0.259,0.555,0.168,0.627
			c0.417,0.071,1.058-0.051,1.365-0.365c0.431-0.439,0.827-0.9,1.211-1.381c0.29-0.361-0.245-0.514-0.509-0.514
			C131.361,153.986,130.81,154.143,130.523,154.5L130.523,154.5z"/>
	</g>
</g>
<g>
	<g>
		<path fill="#FFFFFF" d="M127.336,156.008c-0.532,0.761-1.063,1.521-1.631,2.256c-0.735,0.952,1.107,1.097,1.59,0.473
			c0.649-0.841,1.261-1.708,1.869-2.578c0.279-0.399-0.237-0.69-0.563-0.718C128.112,155.4,127.617,155.605,127.336,156.008
			L127.336,156.008z"/>
	</g>
</g>
<g>
	<g>
		<path fill="#FFFFFF" d="M125.53,156.357c-0.159,0.652-0.076,1.283,0.171,1.901c0.293,0.732,2.203,0.16,1.932-0.518
			c-0.215-0.537-0.302-1.03-0.163-1.599C127.66,155.359,125.704,155.647,125.53,156.357L125.53,156.357z"/>
	</g>
</g>
<g>
	<g>
		<path fill="#FFFFFF" d="M125.442,156.421c-0.069,0.527-0.084,1.053-0.084,1.584c-0.001,0.959,1.949,0.622,1.949-0.176
			c0.001-0.531,0.016-1.057,0.084-1.584C127.513,155.317,125.547,155.613,125.442,156.421L125.442,156.421z"/>
	</g>
</g>
<g>
	<g>
		<path fill="#FFFFFF" d="M125.201,157.509c0,0.306,0,0.611,0,0.917c0,0.264,1.932,0.001,1.932-0.518c0-0.306,0-0.611,0-0.917
			C127.133,156.728,125.201,156.99,125.201,157.509L125.201,157.509z"/>
	</g>
</g>
<rect x="183" y="57" fill="#FFFFFF" stroke="#F1CE24" stroke-width="2" stroke-miterlimit="10" width="13" height="103"/>
<path fill="#BFC1C1" stroke="#BFC1C1" stroke-width="2" stroke-miterlimit="10" d="M201.595,149.706
	c-0.829,1.104-2.396,1.326-3.5,0.496l-7.194-5.408c-1.104-0.829-1.325-2.397-0.495-3.5l0,0c0.829-1.104,2.396-1.326,3.5-0.496
	l7.194,5.409C202.203,147.035,202.425,148.603,201.595,149.706L201.595,149.706z"/>
<ellipse fill="#FFFFFF" stroke="#4E6BB0" stroke-width="2" stroke-miterlimit="10" cx="178.568" cy="169.352" rx="27.697" ry="27.853"/>
<line fill="#BFC1C1" stroke="#BFC1C1" stroke-width="2" stroke-miterlimit="10" x1="178.568" y1="156" x2="178.793" y2="146.314"/>
<line fill="#BFC1C1" stroke="#BFC1C1" stroke-width="2" stroke-miterlimit="10" x1="163.065" y1="169.5" x2="154.644" y2="169.695"/>
<line fill="#BFC1C1" stroke="#BFC1C1" stroke-width="2" stroke-miterlimit="10" x1="178.793" y1="193.075" x2="178.568" y2="183.5"/>
<line fill="#BFC1C1" stroke="#BFC1C1" stroke-width="2" stroke-miterlimit="10" x1="203" y1="170" x2="193" y2="170"/>
<ellipse fill="none" stroke="#4E6BB0" stroke-width="2" stroke-miterlimit="10" cx="178.793" cy="169.695" rx="24.15" ry="23.38"/>
<line fill="#5A5B5B" stroke="#5A5B5B" stroke-width="2" stroke-miterlimit="10" x1="177.793" y1="169.695" x2="188.5" y2="155"/>
<line fill="#5A5B5B" stroke="#5A5B5B" stroke-width="2" stroke-miterlimit="10" x1="177.916" y1="168.411" x2="184.447" y2="177.589"/>
<rect id="_x3C_Sector_x3E__3_" fill="none" width="284" height="209"/>
</svg>
