<?xml version="1.0" encoding="utf-8"?>
<!-- Generator: Adobe Illustrator 16.0.3, SVG Export Plug-In . SVG Version: 6.00 Build 0)  -->
<!DOCTYPE svg PUBLIC "-//W3C//DTD SVG 1.1//EN" "http://www.w3.org/Graphics/SVG/1.1/DTD/svg11.dtd">
<svg version="1.1" xmlns="http://www.w3.org/2000/svg" xmlns:xlink="http://www.w3.org/1999/xlink" x="0px" y="0px" width="285px"
	 height="209px" viewBox="0 0 285 209" enable-background="new 0 0 285 209" xml:space="preserve">
<g id="paleta" display="none">
	<polyline display="inline" fill="#FFFFFF" stroke="#4E6BB0" stroke-width="2" stroke-miterlimit="10" points="124,149 124,163 
		174,163 174,149 	"/>
	<path display="inline" fill="#FFFFFF" stroke="#4E6BB0" stroke-width="2" stroke-miterlimit="10" d="M245,137
		c0,6.627-5.373,12-12,12H67c-6.627,0-12-5.373-12-12V41c0-6.627,5.373-12,12-12h166c6.627,0,12,5.373,12,12V137z"/>
	<path display="inline" fill="#FFFFFF" stroke="#4E6BB0" stroke-width="2" stroke-miterlimit="10" d="M182,165.5
		c0,1.381-1.119,2.5-2.5,2.5h-62c-1.381,0-2.5-1.119-2.5-2.5l0,0c0-1.381,1.119-2.5,2.5-2.5h62C180.881,163,182,164.119,182,165.5
		L182,165.5z"/>
	<circle display="inline" fill="#BFC1C1" stroke="#BFC1C1" stroke-width="2" stroke-miterlimit="10" cx="150" cy="139" r="4"/>
	
		<rect x="61" y="38" display="inline" fill="#FFFFFF" stroke="#4E6BB0" stroke-width="2" stroke-miterlimit="10" width="178" height="89"/>
	<path display="inline" fill="#FFFFFF" stroke="#4E6BB0" stroke-width="2" stroke-miterlimit="10" d="M82,160.45
		c0,4.722-1.541,8.55-3.442,8.55H30.442c-1.901,0-3.442-3.828-3.442-8.55v-68.9c0-4.722,1.541-8.55,3.442-8.55h48.115
		C80.459,83,82,86.828,82,91.55V160.45z"/>
	
		<rect x="31" y="91" display="inline" fill="none" stroke="#4E6BB0" stroke-width="2" stroke-miterlimit="10" width="46" height="68"/>
	
		<ellipse display="inline" fill="#BFC1C1" stroke="#BFC1C1" stroke-width="1.2077" stroke-miterlimit="10" cx="53.5" cy="164.334" rx="2.5" ry="2.333"/>
	<path display="inline" fill="#BFC1C1" stroke="#BFC1C1" stroke-miterlimit="10" d="M65.5,87.5c0,0.552-0.448,1-1,1h-21
		c-0.552,0-1-0.448-1-1l0,0c0-0.552,0.448-1,1-1h21C65.052,86.5,65.5,86.948,65.5,87.5L65.5,87.5z"/>
	<path display="inline" fill="#FFFFFF" stroke="#4E6BB0" stroke-width="2" stroke-miterlimit="10" d="M260,165.463
		c0,3.058-0.88,5.537-1.966,5.537h-27.068c-1.086,0-1.966-2.479-1.966-5.537v-44.926c0-3.058,0.88-5.537,1.966-5.537h27.068
		c1.086,0,1.966,2.479,1.966,5.537V165.463z"/>
	
		<rect x="233" y="123" display="inline" fill="none" stroke="#4E6BB0" stroke-width="2" stroke-miterlimit="10" width="24" height="42"/>
	<path display="inline" fill="#BFC1C1" stroke="#BFC1C1" stroke-miterlimit="10" d="M250.5,119.271c0,0.127-0.174,0.229-0.389,0.229
		h-10.223c-0.215,0-0.389-0.103-0.389-0.229v-0.541c0-0.127,0.174-0.229,0.389-0.229h10.223c0.215,0,0.389,0.103,0.389,0.229
		V119.271z"/>
	<polyline display="inline" fill="none" stroke="#5A5B5B" stroke-width="2" stroke-miterlimit="10" points="42.5,144 55,126.667 
		61,135.334 73,121.334 	"/>
	<polyline display="inline" fill="none" stroke="#5A5B5B" stroke-width="2" stroke-miterlimit="10" points="88.333,107.5 
		119.667,67.334 132.333,81.334 182,74.667 205.667,81.334 226.333,110.334 	"/>
	<polyline display="inline" fill="none" stroke="#5A5B5B" stroke-width="2" stroke-miterlimit="10" points="239,127.334 245,146 
		250.5,136.667 	"/>
	
		<ellipse display="inline" fill="#5A5B5B" stroke="#5A5B5B" stroke-width="2" stroke-miterlimit="10" cx="43.5" cy="143.334" rx="2.5" ry="2.333"/>
	
		<ellipse display="inline" fill="#5A5B5B" stroke="#5A5B5B" stroke-width="2" stroke-miterlimit="10" cx="54.5" cy="126.334" rx="2.5" ry="2.333"/>
	
		<ellipse display="inline" fill="#5A5B5B" stroke="#5A5B5B" stroke-width="2" stroke-miterlimit="10" cx="61.5" cy="135.334" rx="2.5" ry="2.333"/>
	
		<ellipse display="inline" fill="#5A5B5B" stroke="#5A5B5B" stroke-width="2" stroke-miterlimit="10" cx="119.5" cy="67.334" rx="2.5" ry="2.333"/>
	
		<ellipse display="inline" fill="#5A5B5B" stroke="#5A5B5B" stroke-width="2" stroke-miterlimit="10" cx="132.5" cy="81.334" rx="2.5" ry="2.333"/>
	
		<ellipse display="inline" fill="#5A5B5B" stroke="#5A5B5B" stroke-width="2" stroke-miterlimit="10" cx="182.5" cy="75.334" rx="2.5" ry="2.333"/>
	
		<ellipse display="inline" fill="#5A5B5B" stroke="#5A5B5B" stroke-width="2" stroke-miterlimit="10" cx="205.5" cy="81.334" rx="2.5" ry="2.333"/>
	
		<ellipse display="inline" fill="#5A5B5B" stroke="#5A5B5B" stroke-width="2" stroke-miterlimit="10" cx="245.5" cy="145.334" rx="2.5" ry="2.333"/>
	
		<ellipse display="inline" fill="#5A5B5B" stroke="#5A5B5B" stroke-width="2" stroke-miterlimit="10" cx="251.5" cy="134.334" rx="2.5" ry="2.333"/>
	<rect id="_x3C_Sector_x3E_" x="1" display="inline" fill="none" width="283" height="209"/>
</g>
<g id="Capa_2" display="none">
</g>
<g id="Capa_3">
	<g>
		<path fill="#FFFFFF" stroke="#4E6BB0" stroke-width="2" stroke-miterlimit="10" d="M119.678,127.198
			c-10.584-10.156-4.722-17.466-4.722-17.466l14.54-15.152l23.09,22.155l-14.54,15.152
			C138.045,131.888,130.944,138.009,119.678,127.198"/>
		
			<line fill="#FFFFFF" stroke="#4E6BB0" stroke-width="2" stroke-miterlimit="10" x1="116.632" y1="122.428" x2="97.246" y2="142.632"/>
		
			<line fill="#FFFFFF" stroke="#4E6BB0" stroke-width="2" stroke-miterlimit="10" x1="124.599" y1="131.458" x2="102.443" y2="154.548"/>
		
			<line fill="none" stroke="#BFC1C1" stroke-width="2" stroke-miterlimit="10" x1="126.063" y1="99.602" x2="145.544" y2="118.295"/>
		<path fill="#FFFFFF" stroke="#4E6BB0" stroke-width="2" stroke-miterlimit="10" d="M175.878,73.824
			c10.324,10.421,4.279,17.58,4.279,17.58l-14.917,14.78l-22.522-22.732l14.918-14.78C157.635,68.672,164.888,62.732,175.878,73.824
			"/>
		
			<line fill="#FFFFFF" stroke="#4E6BB0" stroke-width="2" stroke-miterlimit="10" x1="178.802" y1="78.67" x2="202.245" y2="55.443"/>
		
			<line fill="#FFFFFF" stroke="#4E6BB0" stroke-width="2" stroke-miterlimit="10" x1="171.066" y1="69.441" x2="190.247" y2="50.438"/>
		
			<line fill="#BFC1C1" stroke="#BFC1C1" stroke-width="2" stroke-miterlimit="10" x1="168.798" y1="101.251" x2="150.499" y2="82.781"/>
		<polyline fill="none" stroke="#4E6BB0" stroke-width="2" stroke-miterlimit="10" points="135.505,100.231 140.114,95.067 
			144.443,99.222 139.203,103.721 		"/>
		<polyline fill="none" stroke="#4E6BB0" stroke-width="2" stroke-miterlimit="10" points="143.442,107.848 148.051,102.684 
			152.38,106.838 147.38,111.567 		"/>
		<ellipse fill="#96E098" cx="180.623" cy="137.799" rx="17.623" ry="16.701"/>
		<polyline fill="none" stroke="#53AA59" stroke-width="3" stroke-miterlimit="10" points="170.397,137.873 175.944,144.507 
			191.645,131.378 		"/>
	</g>
</g>
</svg>
