<?xml version="1.0" encoding="utf-8"?>
<!-- Generator: Adobe Illustrator 15.0.0, SVG Export Plug-In  -->
<!DOCTYPE svg PUBLIC "-//W3C//DTD SVG 1.1//EN" "http://www.w3.org/Graphics/SVG/1.1/DTD/svg11.dtd" [
	<!ENTITY ns_flows "http://ns.adobe.com/Flows/1.0/">
]>
<svg version="1.1"
	 xmlns="http://www.w3.org/2000/svg" xmlns:xlink="http://www.w3.org/1999/xlink" xmlns:a="http://ns.adobe.com/AdobeSVGViewerExtensions/3.0/"
	 x="0px" y="0px" width="224px" height="69px" viewBox="0 0 224 69" enable-background="new 0 0 224 69" xml:space="preserve">
<defs>
</defs>
<text transform="matrix(1.0872 0 0 1 74 48.7637)" fill="#204C86" font-family="'ArialRoundedMTBold'" font-size="37.2868">Fluguel</text>
<path fill="#204C86" d="M52.147,10.472C61.06,15.462,67.026,24.58,67.026,35c0,15.777-13.678,28.568-30.551,28.568
	C19.602,63.568,5.923,50.777,5.923,35c0-15.778,13.678-28.568,30.552-28.568C42.204,6.432,47.565,7.907,52.147,10.472"/>
<path fill="#FFFFFF" d="M52.415,10.624c0.462-0.911,1.249-1.663,2.102-1.636c0.764,0.079,0.923,0.525,1.075,1.048
	c0.251,0.86,0.235,2.575,0.304,4.041c0.091,1.925-0.015,3.602-0.2,5.436c-0.13,1.28-0.461,2.546-0.899,3.771
	c-0.468,1.307-1.16,2.04-2.019,3.134c-1.133,1.443-1.435,1.686-3.076,2.935c-1.32,1.005-3.049,2.042-4.858,2.988
	c-1.526,0.798-3.138,1.425-3.031,1.815c0.373,1.013,7.011-2.399,9.368-4.511c2.255-2.02,1.25-1.047,3.111-3.326
	c0.654-0.794,1.63-0.221,1.639,1.256c0.018,2.88-1.266,7.063-3.041,9.588c-1.829,2.602-4.584,4.607-7.774,5.993
	c-1.624,0.704-2.829,0.957-4.599,1.383c-1.579,0.38-3.46,0.728-3.645,1.382c-0.231,0.817,1.854-0.211,3.492-0.608l2.189-0.642
	c0.502-0.154,0.893-0.243,1.411-0.338c1.446-0.266,1.647,1.541,0.937,2.666c-0.331,0.524-1.083,1.859-2.659,3.195
	c-1.779,1.506-4.649,3.128-5.629,3.665c-1.437,0.787-5.206,2.66-7.292,3.087c-1.729,0.354-1.707-0.151-3.495-0.511
	c-1.047-0.21-1.887-2.701-2.949-2.786c-0.773-0.063-4.135-1.244-4.44-1.967c-0.313-0.738-0.37-1.228-0.706-1.691
	c-0.342-0.473-0.741-1.205-0.706-1.998c0.067-1.531,0.184-6.133,0.415-7.648l2.575-3.65c1.408-2.234,0.021-0.063,1.246-1.807
	c1.912-2.721,12.788-7.226,15.834-8.674c1.799-0.855,3.353-1.53,4.752-2.461c0.789-0.525,2.213-1.532,2.829-2.094
	c2.774-2.537,3.572-3.309,5.035-5.551c0.985-1.511,1.899-3.514,2.546-5.131C52.302,10.858,52.356,10.74,52.415,10.624"/>
<path fill="#FFFFFF" d="M14.123,43.033c0,6.896,5.852,12.487,13.069,12.487c2.842,0,4.074,0.046,6.554-0.604
	c3.178-0.833,4.704-5.004-0.444-12.333c-4.061-5.782,9.254-12.938,2.037-12.938S14.123,36.137,14.123,43.033z"/>
<path fill="#FFFFFF" d="M32.487,55.598c-5.966-0.202-9.398-5.258-9.039-10.516c0.309-4.517,2.262-7.926,5.512-10.642
	c-1.001-0.241-2.044-0.382-3.125-0.382c-6.917,0-12.525,5.241-12.525,11.706c0,6.464,5.608,11.705,12.525,11.705
	c2.5,0,4.824-0.692,6.779-1.872C32.571,55.597,32.531,55.6,32.487,55.598z"/>
<rect id="_x3C_Sector_x3E__1_" fill="none" width="224" height="69"/>
</svg>
